# xmcd
#
# Track frame offsets:
#	150
#	19749
#	37905
#	53526
#	68175
#	86489
#	98200
#	116959
#	133049
#	151846
#	166227
#	183990
#
# Disc length: 2642 seconds
# Revision: 1
# Processed by: cddbd v1.5.2PL0 Copyright (c) Steve Scherf et al.
# Submitted via: dBpowerAMP V12.0
#
DISCID=920a500c
DTITLE=Greg Bain - This Land of The Free
DYEAR=2013
DGENRE=Country
TTITLE0=Land of The Free
TTITLE1=On Bankers Land
TTITLE2=Two Champions
TTITLE3=Thistles on The Hillside
TTITLE4=The Road to Nemingah
TTITLE5=Mustering Camps
TTITLE6=When Grandpa Was a Boy
TTITLE7=One Out and One Back
TTITLE8=Ghosts of Bungendore
TTITLE9=Fair Dinkum Bushman
TTITLE10=My Little Bush Home
TTITLE11=Coming Back Home
EXTD=
EXTT0=
EXTT1=
EXTT2=
EXTT3=
EXTT4=
EXTT5=
EXTT6=
EXTT7=
EXTT8=
EXTT9=
EXTT10=
EXTT11=
PLAYORDER=
